<svg xmlns="http://www.w3.org/2000/svg" xmlns:xlink="http://www.w3.org/1999/xlink" width="1920" zoomAndPan="magnify" viewBox="0 0 1440 809.999993" height="1080" preserveAspectRatio="xMidYMid meet" version="1.0"><defs><filter x="0%" y="0%" width="100%" height="100%" id="917ef1a340"><feColorMatrix values="0 0 0 0 1 0 0 0 0 1 0 0 0 0 1 0 0 0 1 0" color-interpolation-filters="sRGB"/></filter><g/><clipPath id="cae885880e"><path d="M 32.664062 155.375 L 1030.914062 155.375 L 1030.914062 654.875 L 32.664062 654.875 Z M 32.664062 155.375 " clip-rule="nonzero"/></clipPath><clipPath id="7ee991db8a"><path d="M 32.664062 155.375 L 1030.914062 155.375 L 1030.914062 256 L 32.664062 256 Z M 32.664062 155.375 " clip-rule="nonzero"/></clipPath><clipPath id="7bae278766"><path d="M 32.664062 155.375 L 1030.914062 155.375 L 1030.914062 654.875 L 32.664062 654.875 Z M 32.664062 155.375 " clip-rule="nonzero"/></clipPath><mask id="168f7ebea4"><g filter="url(#917ef1a340)"><rect x="-144" width="1728" fill="#000000" y="-80.999999" height="971.999992" fill-opacity="0.3"/></g></mask><clipPath id="17a9a00547"><path d="M 1 0.28125 L 975 0.28125 L 975 475.71875 L 1 475.71875 Z M 1 0.28125 " clip-rule="nonzero"/></clipPath><clipPath id="2c54c1393a"><rect x="0" width="976" y="0" height="476"/></clipPath><clipPath id="201870fc82"><path d="M 32.664062 155.375 L 1020 155.375 L 1020 643 L 32.664062 643 Z M 32.664062 155.375 " clip-rule="nonzero"/></clipPath><mask id="1c8b9f9ace"><g filter="url(#917ef1a340)"><rect x="-144" width="1728" fill="#000000" y="-80.999999" height="971.999992" fill-opacity="0.5"/></g></mask><clipPath id="022750a7f8"><path d="M 0.664062 0.375 L 987 0.375 L 987 487.71875 L 0.664062 487.71875 Z M 0.664062 0.375 " clip-rule="nonzero"/></clipPath><clipPath id="0260a0f88c"><rect x="0" width="988" y="0" height="488"/></clipPath><clipPath id="d80c6ab19e"><rect x="0" width="681" y="0" height="304"/></clipPath><clipPath id="91d85c3dd1"><path d="M 1068.808594 260.792969 L 1370.011719 260.792969 L 1370.011719 561.992188 L 1068.808594 561.992188 Z M 1068.808594 260.792969 " clip-rule="nonzero"/></clipPath><clipPath id="1d8d5fe8ff"><path d="M 1180.015625 345.089844 L 1258.816406 345.089844 L 1258.816406 416.414062 L 1180.015625 416.414062 Z M 1180.015625 345.089844 " clip-rule="nonzero"/></clipPath><clipPath id="134cef15e2"><path d="M 1230 345.089844 L 1244.511719 345.089844 L 1244.511719 352.40625 L 1230 352.40625 Z M 1230 345.089844 " clip-rule="nonzero"/></clipPath><clipPath id="c30a94fafa"><path d="M 1194.308594 345.089844 L 1208.867188 345.089844 L 1208.867188 352.40625 L 1194.308594 352.40625 Z M 1194.308594 345.089844 " clip-rule="nonzero"/></clipPath><clipPath id="958e15dbbe"><path d="M 1180.015625 359.183594 L 1187.28125 359.183594 L 1187.28125 380.769531 L 1180.015625 380.769531 Z M 1180.015625 359.183594 " clip-rule="nonzero"/></clipPath><clipPath id="8e3ad0d948"><path d="M 1076.253906 527.464844 L 1362.566406 527.464844 L 1362.566406 555.511719 L 1076.253906 555.511719 Z M 1076.253906 527.464844 " clip-rule="nonzero"/></clipPath><clipPath id="246049ce60"><rect x="0" width="493" y="0" height="38"/></clipPath></defs><g clip-path="url(#cae885880e)"><path fill="#c0c0c0" d="M 32.667969 155.375 L 1031.152344 155.375 L 1031.152344 654.617188 L 32.667969 654.617188 Z M 32.667969 155.375 " fill-opacity="1" fill-rule="nonzero"/><path fill="#f7f8fa" d="M 32.667969 155.375 L 1031.152344 155.375 L 1031.152344 654.617188 L 32.667969 654.617188 Z M 32.667969 155.375 " fill-opacity="1" fill-rule="nonzero"/></g><g clip-path="url(#7ee991db8a)"><path fill="#a92f2f" d="M 32.667969 155.375 L 1031.152344 155.375 L 1031.152344 255.222656 L 32.667969 255.222656 Z M 32.667969 155.375 " fill-opacity="1" fill-rule="nonzero"/></g><g clip-path="url(#7bae278766)"><path fill="#000000" d="M 1018.773438 155.375 L 1018.773438 642.238281 L 32.667969 642.238281 L 32.667969 654.617188 L 1031.152344 654.617188 L 1031.152344 155.375 Z M 1018.773438 155.375 " fill-opacity="1" fill-rule="nonzero"/></g><g mask="url(#168f7ebea4)"><g transform="matrix(1, 0, 0, 1, 44, 167)"><g clip-path="url(#2c54c1393a)"><g clip-path="url(#17a9a00547)"><path fill="#000000" d="M 962.191406 0.957031 L 962.191406 75.84375 L 1.25 75.84375 L 1.25 88.222656 L 962.191406 88.222656 L 962.191406 462.65625 L 1.25 462.65625 L 1.25 475.238281 L 974.773438 475.238281 L 974.773438 0.957031 Z M 962.191406 0.957031 " fill-opacity="1" fill-rule="nonzero"/></g></g></g></g><g clip-path="url(#201870fc82)"><g mask="url(#1c8b9f9ace)"><g transform="matrix(1, 0, 0, 1, 32, 155)"><g clip-path="url(#0260a0f88c)"><g clip-path="url(#022750a7f8)"><path fill="#c0c0c0" d="M 986.773438 12.957031 L 986.773438 0.375 L 0.667969 0.375 L 0.667969 487.238281 L 13.25 487.238281 L 13.25 112.804688 L 974.191406 112.804688 L 974.191406 100.222656 L 13.25 100.222656 L 13.25 12.957031 Z M 986.773438 12.957031 " fill-opacity="1" fill-rule="nonzero"/></g></g></g></g></g><g transform="matrix(1, 0, 0, 1, 221, 293)"><g clip-path="url(#d80c6ab19e)"><g fill="#000000" fill-opacity="1"><g transform="translate(0.0838525, 242.128701)"><g><path d="M 15.125 -30.234375 L 15.125 -181.40625 L 45.359375 -181.40625 L 45.359375 -30.234375 Z M 45.359375 0 L 45.359375 -30.234375 L 136.0625 -30.234375 L 136.0625 0 Z M 45.359375 -181.40625 L 45.359375 -211.640625 L 136.0625 -211.640625 L 136.0625 -181.40625 Z M 136.0625 -30.234375 L 136.0625 -60.46875 L 166.296875 -60.46875 L 166.296875 -30.234375 Z M 136.0625 -151.171875 L 136.0625 -181.40625 L 166.296875 -181.40625 L 166.296875 -151.171875 Z M 136.0625 -151.171875 "/></g></g></g><g fill="#000000" fill-opacity="1"><g transform="translate(181.485928, 242.128701)"><g><path d="M 75.59375 0 L 75.59375 -181.40625 L 15.125 -181.40625 L 15.125 -211.640625 L 166.296875 -211.640625 L 166.296875 -181.40625 L 105.828125 -181.40625 L 105.828125 0 Z M 75.59375 0 "/></g></g></g><g fill="#000000" fill-opacity="1"><g transform="translate(362.888004, 242.128701)"><g><path d="M 15.125 0 L 15.125 -211.640625 L 45.359375 -211.640625 L 45.359375 0 Z M 15.125 0 "/></g></g></g><g fill="#000000" fill-opacity="1"><g transform="translate(423.355349, 242.128701)"><g><path d="M 15.125 -30.234375 L 15.125 -181.40625 L 45.359375 -181.40625 L 45.359375 -30.234375 Z M 45.359375 0 L 45.359375 -30.234375 L 136.0625 -30.234375 L 136.0625 0 Z M 45.359375 -181.40625 L 45.359375 -211.640625 L 136.0625 -211.640625 L 136.0625 -181.40625 Z M 136.0625 -30.234375 L 136.0625 -60.46875 L 166.296875 -60.46875 L 166.296875 -30.234375 Z M 136.0625 -151.171875 L 136.0625 -181.40625 L 166.296875 -181.40625 L 166.296875 -151.171875 Z M 136.0625 -151.171875 "/></g></g></g><g fill="#000000" fill-opacity="1"><g transform="translate(604.795463, 242.128701)"><g/></g></g></g></g><g clip-path="url(#91d85c3dd1)"><path fill="#f7f8fa" d="M 948.332031 140.3125 L 1490.488281 140.3125 L 1490.488281 682.472656 L 948.332031 682.472656 Z M 948.332031 140.3125 " fill-opacity="1" fill-rule="nonzero"/><path stroke-linecap="butt" transform="matrix(0.18825, 0, 0, 0.18825, 1068.810192, 260.792438)" fill="none" stroke-linejoin="miter" d="M -0.00849244 0.00281896 L 1600.008168 0.00281896 L 1600.008168 1599.998729 L -0.00849244 1599.998729 Z M -0.00849244 0.00281896 " stroke="#000000" stroke-width="78" stroke-opacity="1" stroke-miterlimit="4"/></g><g clip-path="url(#1d8d5fe8ff)"><path fill="#000000" d="M 1251.625 359.355469 L 1251.625 352.21875 L 1244.46875 352.21875 L 1244.46875 345.097656 L 1230.152344 345.097656 L 1230.152344 352.21875 L 1222.976562 352.21875 L 1222.976562 359.355469 L 1215.835938 359.355469 L 1215.835938 352.21875 L 1208.675781 352.21875 L 1208.675781 345.097656 L 1194.34375 345.097656 L 1194.34375 352.21875 L 1187.203125 352.21875 L 1187.203125 359.355469 L 1180.027344 359.355469 L 1180.027344 380.738281 L 1187.203125 380.738281 L 1187.203125 387.875 L 1194.34375 387.875 L 1194.34375 395.015625 L 1201.5 395.015625 L 1201.5 402.136719 L 1208.675781 402.136719 L 1208.675781 409.277344 L 1215.835938 409.277344 L 1215.835938 416.398438 L 1222.976562 416.398438 L 1222.976562 409.277344 L 1230.152344 409.277344 L 1230.152344 402.136719 L 1237.308594 402.136719 L 1237.308594 395.015625 L 1244.46875 395.015625 L 1244.46875 387.875 L 1251.625 387.875 L 1251.625 380.738281 L 1258.78125 380.738281 L 1258.78125 359.355469 Z M 1251.625 359.355469 " fill-opacity="1" fill-rule="nonzero"/></g><path fill="#ff3131" d="M 1237.832031 356.261719 L 1230.148438 359.355469 L 1227.898438 363.71875 L 1222.984375 366.476562 L 1221.074219 370.859375 L 1217.714844 370.824219 L 1215.839844 366.476562 L 1212.257812 363.230469 L 1208.675781 359.355469 L 1201.507812 356.824219 L 1194.339844 359.355469 L 1187.199219 359.355469 L 1183.207031 366.476562 L 1187.199219 373.621094 L 1190.210938 376.613281 L 1194.339844 380.742188 L 1198.296875 384 L 1201.507812 387.886719 L 1204.738281 391.070312 L 1208.675781 395.007812 L 1213.011719 397.96875 L 1215.839844 402.128906 L 1219.414062 404.269531 L 1222.984375 402.128906 L 1225.695312 397.863281 L 1230.148438 395.007812 L 1233.394531 391.035156 L 1237.316406 387.886719 L 1239.917969 384.921875 L 1244.460938 380.742188 L 1249.054688 377.183594 L 1248.121094 366.273438 L 1244.460938 359.355469 Z M 1237.832031 356.261719 " fill-opacity="1" fill-rule="nonzero"/><path fill="#ac0a3b" d="M 1244.460938 373.621094 L 1251.625 373.621094 L 1251.625 380.742188 L 1244.460938 380.742188 Z M 1244.460938 373.621094 " fill-opacity="1" fill-rule="nonzero"/><path fill="#ac0a3b" d="M 1237.316406 380.742188 L 1244.460938 380.742188 L 1244.460938 387.886719 L 1237.316406 387.886719 Z M 1237.316406 380.742188 " fill-opacity="1" fill-rule="nonzero"/><path fill="#ac0a3b" d="M 1230.148438 387.886719 L 1237.316406 387.886719 L 1237.316406 395.007812 L 1230.148438 395.007812 Z M 1230.148438 387.886719 " fill-opacity="1" fill-rule="nonzero"/><path fill="#ac0a3b" d="M 1222.984375 395.007812 L 1230.148438 395.007812 L 1230.148438 402.128906 L 1222.984375 402.128906 Z M 1222.984375 395.007812 " fill-opacity="1" fill-rule="nonzero"/><path fill="#ac0a3b" d="M 1215.839844 402.128906 L 1222.984375 402.128906 L 1222.984375 409.273438 L 1215.839844 409.273438 Z M 1215.839844 402.128906 " fill-opacity="1" fill-rule="nonzero"/><path fill="#ac0a3b" d="M 1208.675781 395.007812 L 1215.839844 395.007812 L 1215.839844 402.128906 L 1208.675781 402.128906 Z M 1208.675781 395.007812 " fill-opacity="1" fill-rule="nonzero"/><path fill="#ac0a3b" d="M 1201.507812 387.886719 L 1208.675781 387.886719 L 1208.675781 395.007812 L 1201.507812 395.007812 Z M 1201.507812 387.886719 " fill-opacity="1" fill-rule="nonzero"/><path fill="#ac0a3b" d="M 1194.339844 380.742188 L 1201.507812 380.742188 L 1201.507812 387.886719 L 1194.339844 387.886719 Z M 1194.339844 380.742188 " fill-opacity="1" fill-rule="nonzero"/><path fill="#ac0a3b" d="M 1187.199219 373.621094 L 1194.339844 373.621094 L 1194.339844 380.742188 L 1187.199219 380.742188 Z M 1187.199219 373.621094 " fill-opacity="1" fill-rule="nonzero"/><path fill="#ac0a3b" d="M 1244.460938 359.355469 L 1244.460938 373.621094 L 1251.625 373.621094 L 1251.625 359.355469 Z M 1244.460938 359.355469 " fill-opacity="1" fill-rule="nonzero"/><path fill="#ac0a3b" d="M 1237.316406 352.210938 L 1230.148438 352.210938 L 1230.148438 359.355469 L 1244.460938 359.355469 L 1244.460938 352.210938 Z M 1237.316406 352.210938 " fill-opacity="1" fill-rule="nonzero"/><path fill="#ac0a3b" d="M 1222.984375 359.355469 L 1230.148438 359.355469 L 1230.148438 366.476562 L 1222.984375 366.476562 Z M 1222.984375 359.355469 " fill-opacity="1" fill-rule="nonzero"/><path fill="#ac0a3b" d="M 1215.839844 366.476562 L 1222.984375 366.476562 L 1222.984375 373.621094 L 1215.839844 373.621094 Z M 1215.839844 366.476562 " fill-opacity="1" fill-rule="nonzero"/><path fill="#ac0a3b" d="M 1208.675781 359.355469 L 1215.839844 359.355469 L 1215.839844 366.476562 L 1208.675781 366.476562 Z M 1208.675781 359.355469 " fill-opacity="1" fill-rule="nonzero"/><path fill="#ac0a3b" d="M 1201.507812 352.210938 L 1194.339844 352.210938 L 1194.339844 359.355469 L 1208.675781 359.355469 L 1208.675781 352.210938 Z M 1201.507812 352.210938 " fill-opacity="1" fill-rule="nonzero"/><path fill="#000000" d="M 1251.625 359.355469 L 1251.625 380.742188 L 1258.792969 380.742188 L 1258.792969 359.355469 Z M 1251.625 359.355469 " fill-opacity="1" fill-rule="nonzero"/><path fill="#000000" d="M 1244.460938 380.742188 L 1251.625 380.742188 L 1251.625 387.886719 L 1244.460938 387.886719 Z M 1244.460938 380.742188 " fill-opacity="1" fill-rule="nonzero"/><path fill="#000000" d="M 1244.460938 352.210938 L 1251.625 352.210938 L 1251.625 359.355469 L 1244.460938 359.355469 Z M 1244.460938 352.210938 " fill-opacity="1" fill-rule="nonzero"/><path fill="#000000" d="M 1237.316406 387.886719 L 1244.460938 387.886719 L 1244.460938 395.007812 L 1237.316406 395.007812 Z M 1237.316406 387.886719 " fill-opacity="1" fill-rule="nonzero"/><g clip-path="url(#134cef15e2)"><path fill="#000000" d="M 1244.460938 352.210938 L 1244.460938 345.089844 L 1230.148438 345.089844 L 1230.148438 352.210938 Z M 1244.460938 352.210938 " fill-opacity="1" fill-rule="nonzero"/></g><path fill="#000000" d="M 1230.148438 395.007812 L 1237.316406 395.007812 L 1237.316406 402.128906 L 1230.148438 402.128906 Z M 1230.148438 395.007812 " fill-opacity="1" fill-rule="nonzero"/><path fill="#000000" d="M 1222.984375 402.128906 L 1230.148438 402.128906 L 1230.148438 409.273438 L 1222.984375 409.273438 Z M 1222.984375 402.128906 " fill-opacity="1" fill-rule="nonzero"/><path fill="#000000" d="M 1222.984375 352.210938 L 1230.148438 352.210938 L 1230.148438 359.355469 L 1222.984375 359.355469 Z M 1222.984375 352.210938 " fill-opacity="1" fill-rule="nonzero"/><path fill="#000000" d="M 1215.839844 409.273438 L 1222.984375 409.273438 L 1222.984375 416.394531 L 1215.839844 416.394531 Z M 1215.839844 409.273438 " fill-opacity="1" fill-rule="nonzero"/><path fill="#000000" d="M 1215.839844 359.355469 L 1222.984375 359.355469 L 1222.984375 366.476562 L 1215.839844 366.476562 Z M 1215.839844 359.355469 " fill-opacity="1" fill-rule="nonzero"/><path fill="#000000" d="M 1208.675781 402.128906 L 1215.839844 402.128906 L 1215.839844 409.273438 L 1208.675781 409.273438 Z M 1208.675781 402.128906 " fill-opacity="1" fill-rule="nonzero"/><path fill="#000000" d="M 1208.675781 352.210938 L 1215.839844 352.210938 L 1215.839844 359.355469 L 1208.675781 359.355469 Z M 1208.675781 352.210938 " fill-opacity="1" fill-rule="nonzero"/><path fill="#000000" d="M 1201.507812 395.007812 L 1208.675781 395.007812 L 1208.675781 402.128906 L 1201.507812 402.128906 Z M 1201.507812 395.007812 " fill-opacity="1" fill-rule="nonzero"/><g clip-path="url(#c30a94fafa)"><path fill="#000000" d="M 1208.675781 352.210938 L 1208.675781 345.089844 L 1194.339844 345.089844 L 1194.339844 352.210938 Z M 1208.675781 352.210938 " fill-opacity="1" fill-rule="nonzero"/></g><path fill="#000000" d="M 1194.339844 387.886719 L 1201.507812 387.886719 L 1201.507812 395.007812 L 1194.339844 395.007812 Z M 1194.339844 387.886719 " fill-opacity="1" fill-rule="nonzero"/><path fill="#000000" d="M 1187.199219 380.742188 L 1194.339844 380.742188 L 1194.339844 387.886719 L 1187.199219 387.886719 Z M 1187.199219 380.742188 " fill-opacity="1" fill-rule="nonzero"/><path fill="#000000" d="M 1187.199219 352.210938 L 1194.339844 352.210938 L 1194.339844 359.355469 L 1187.199219 359.355469 Z M 1187.199219 352.210938 " fill-opacity="1" fill-rule="nonzero"/><g clip-path="url(#958e15dbbe)"><path fill="#000000" d="M 1187.199219 366.476562 L 1187.199219 359.355469 L 1180.03125 359.355469 L 1180.03125 380.742188 L 1187.199219 380.742188 Z M 1187.199219 366.476562 " fill-opacity="1" fill-rule="nonzero"/></g><g clip-path="url(#8e3ad0d948)"><path fill="#ac0a3b" d="M 1076.253906 527.464844 L 1362.546875 527.464844 L 1362.546875 555.511719 L 1076.253906 555.511719 Z M 1076.253906 527.464844 " fill-opacity="1" fill-rule="nonzero"/></g><path fill="#000000" d="M 1120.1875 425.691406 L 1120.1875 436.921875 L 1116.445312 436.921875 L 1116.445312 425.691406 Z M 1120.1875 440.667969 L 1120.1875 436.921875 L 1135.167969 436.921875 L 1135.167969 440.667969 Z M 1120.1875 425.691406 L 1120.1875 421.945312 L 1135.167969 421.945312 L 1135.167969 425.691406 Z M 1120.1875 425.691406 " fill-opacity="1" fill-rule="nonzero"/><path fill="#000000" d="M 1138.910156 440.667969 L 1138.910156 421.945312 L 1142.652344 421.945312 L 1142.652344 429.4375 L 1153.890625 429.4375 L 1153.890625 421.945312 L 1157.632812 421.945312 L 1157.632812 440.667969 L 1153.890625 440.667969 L 1153.890625 433.179688 L 1142.652344 433.179688 L 1142.652344 440.667969 Z M 1138.910156 440.667969 " fill-opacity="1" fill-rule="nonzero"/><path fill="#000000" d="M 1161.375 440.667969 L 1161.375 425.691406 L 1165.117188 425.691406 L 1165.117188 433.179688 L 1176.355469 433.179688 L 1176.355469 425.691406 L 1180.097656 425.691406 L 1180.097656 440.667969 L 1176.355469 440.667969 L 1176.355469 436.921875 L 1165.117188 436.921875 L 1165.117188 440.667969 Z M 1165.117188 425.691406 L 1165.117188 421.945312 L 1176.355469 421.945312 L 1176.355469 425.691406 Z M 1165.117188 425.691406 " fill-opacity="1" fill-rule="nonzero"/><path fill="#000000" d="M 1189.457031 440.667969 L 1189.457031 425.691406 L 1181.964844 425.691406 L 1181.964844 421.945312 L 1200.6875 421.945312 L 1200.6875 425.691406 L 1193.203125 425.691406 L 1193.203125 440.667969 Z M 1189.457031 440.667969 " fill-opacity="1" fill-rule="nonzero"/><path fill="#000000" d="M 1217.539062 436.921875 L 1217.539062 440.667969 L 1206.304688 440.667969 L 1206.304688 436.921875 Z M 1202.558594 436.921875 L 1202.558594 425.691406 L 1206.304688 425.691406 L 1206.304688 436.921875 Z M 1206.304688 425.691406 L 1206.304688 421.945312 L 1217.539062 421.945312 L 1217.539062 425.691406 Z M 1217.539062 436.921875 L 1217.539062 425.691406 L 1221.28125 425.691406 L 1221.28125 436.921875 Z M 1217.539062 436.921875 " fill-opacity="1" fill-rule="nonzero"/><path fill="#000000" d="M 1240.003906 440.667969 L 1240.003906 429.4375 L 1236.257812 429.4375 L 1236.257812 425.691406 L 1240.003906 425.691406 L 1240.003906 421.945312 L 1243.746094 421.945312 L 1243.746094 440.667969 Z M 1225.023438 440.667969 L 1225.023438 421.945312 L 1228.769531 421.945312 L 1228.769531 425.691406 L 1232.515625 425.691406 L 1232.515625 429.4375 L 1228.769531 429.4375 L 1228.769531 440.667969 Z M 1232.515625 433.179688 L 1232.515625 429.4375 L 1236.257812 429.4375 L 1236.257812 433.179688 Z M 1232.515625 433.179688 " fill-opacity="1" fill-rule="nonzero"/><path fill="#000000" d="M 1247.488281 440.667969 L 1247.488281 425.691406 L 1251.234375 425.691406 L 1251.234375 433.179688 L 1262.46875 433.179688 L 1262.46875 425.691406 L 1266.210938 425.691406 L 1266.210938 440.667969 L 1262.46875 440.667969 L 1262.46875 436.921875 L 1251.234375 436.921875 L 1251.234375 440.667969 Z M 1251.234375 425.691406 L 1251.234375 421.945312 L 1262.46875 421.945312 L 1262.46875 425.691406 Z M 1251.234375 425.691406 " fill-opacity="1" fill-rule="nonzero"/><path fill="#000000" d="M 1275.570312 440.667969 L 1275.570312 425.691406 L 1268.082031 425.691406 L 1268.082031 421.945312 L 1286.804688 421.945312 L 1286.804688 425.691406 L 1279.316406 425.691406 L 1279.316406 440.667969 Z M 1275.570312 440.667969 " fill-opacity="1" fill-rule="nonzero"/><path fill="#000000" d="M 1288.671875 440.667969 L 1288.671875 436.921875 L 1292.417969 436.921875 L 1292.417969 433.179688 L 1288.671875 433.179688 L 1288.671875 429.4375 L 1299.910156 429.4375 L 1299.910156 433.179688 L 1296.164062 433.179688 L 1296.164062 436.921875 L 1299.910156 436.921875 L 1299.910156 440.667969 Z M 1292.417969 425.691406 L 1292.417969 421.945312 L 1296.164062 421.945312 L 1296.164062 425.691406 Z M 1292.417969 425.691406 " fill-opacity="1" fill-rule="nonzero"/><path fill="#000000" d="M 1307.394531 425.691406 L 1307.394531 436.921875 L 1303.648438 436.921875 L 1303.648438 425.691406 Z M 1307.394531 440.667969 L 1307.394531 436.921875 L 1322.371094 436.921875 L 1322.371094 440.667969 Z M 1307.394531 425.691406 L 1307.394531 421.945312 L 1322.371094 421.945312 L 1322.371094 425.691406 Z M 1307.394531 425.691406 " fill-opacity="1" fill-rule="nonzero"/><path fill="#b4b4b4" d="M 1145.757812 457.8125 L 1145.757812 451.664062 L 1143.707031 451.664062 L 1143.707031 449.613281 L 1145.757812 449.613281 L 1145.757812 447.5625 L 1147.808594 447.5625 L 1147.808594 457.8125 Z M 1137.554688 457.8125 L 1137.554688 447.5625 L 1139.605469 447.5625 L 1139.605469 449.613281 L 1141.65625 449.613281 L 1141.65625 451.664062 L 1139.605469 451.664062 L 1139.605469 457.8125 Z M 1141.65625 453.710938 L 1141.65625 451.664062 L 1143.707031 451.664062 L 1143.707031 453.710938 Z M 1141.65625 453.710938 " fill-opacity="1" fill-rule="nonzero"/><path fill="#b4b4b4" d="M 1149.855469 457.8125 L 1149.855469 447.5625 L 1160.105469 447.5625 L 1160.105469 449.613281 L 1151.90625 449.613281 L 1151.90625 451.664062 L 1158.054688 451.664062 L 1158.054688 453.710938 L 1151.90625 453.710938 L 1151.90625 455.761719 L 1160.105469 455.761719 L 1160.105469 457.8125 Z M 1149.855469 457.8125 " fill-opacity="1" fill-rule="nonzero"/><path fill="#b4b4b4" d="M 1162.15625 457.8125 L 1162.15625 447.5625 L 1170.355469 447.5625 L 1170.355469 449.613281 L 1164.207031 449.613281 L 1164.207031 455.761719 L 1170.355469 455.761719 L 1170.355469 457.8125 Z M 1170.355469 455.761719 L 1170.355469 449.613281 L 1172.40625 449.613281 L 1172.40625 455.761719 Z M 1170.355469 455.761719 " fill-opacity="1" fill-rule="nonzero"/><path fill="#b4b4b4" d="M 1174.453125 457.8125 L 1174.453125 455.761719 L 1176.503906 455.761719 L 1176.503906 453.710938 L 1174.453125 453.710938 L 1174.453125 451.664062 L 1180.605469 451.664062 L 1180.605469 453.710938 L 1178.554688 453.710938 L 1178.554688 455.761719 L 1180.605469 455.761719 L 1180.605469 457.8125 Z M 1176.503906 449.613281 L 1176.503906 447.5625 L 1178.554688 447.5625 L 1178.554688 449.613281 Z M 1176.503906 449.613281 " fill-opacity="1" fill-rule="nonzero"/><path fill="#b4b4b4" d="M 1182.652344 457.8125 L 1182.652344 449.613281 L 1184.703125 449.613281 L 1184.703125 453.710938 L 1190.855469 453.710938 L 1190.855469 449.613281 L 1192.90625 449.613281 L 1192.90625 457.8125 L 1190.855469 457.8125 L 1190.855469 455.761719 L 1184.703125 455.761719 L 1184.703125 457.8125 Z M 1184.703125 449.613281 L 1184.703125 447.5625 L 1190.855469 447.5625 L 1190.855469 449.613281 Z M 1184.703125 449.613281 " fill-opacity="1" fill-rule="nonzero"/><path fill="#b4b4b4" d="M 1203.152344 449.613281 L 1203.152344 451.664062 L 1201.101562 451.664062 L 1201.101562 449.613281 Z M 1201.101562 457.8125 L 1201.101562 455.761719 L 1209.304688 455.761719 L 1209.304688 457.8125 Z M 1203.152344 453.710938 L 1203.152344 451.664062 L 1209.304688 451.664062 L 1209.304688 453.710938 Z M 1203.152344 449.613281 L 1203.152344 447.5625 L 1211.355469 447.5625 L 1211.355469 449.613281 Z M 1209.304688 455.761719 L 1209.304688 453.710938 L 1211.355469 453.710938 L 1211.355469 455.761719 Z M 1209.304688 455.761719 " fill-opacity="1" fill-rule="nonzero"/><path fill="#b4b4b4" d="M 1221.601562 455.761719 L 1221.601562 457.8125 L 1215.453125 457.8125 L 1215.453125 455.761719 Z M 1213.402344 455.761719 L 1213.402344 449.613281 L 1215.453125 449.613281 L 1215.453125 455.761719 Z M 1215.453125 449.613281 L 1215.453125 447.5625 L 1221.601562 447.5625 L 1221.601562 449.613281 Z M 1221.601562 455.761719 L 1221.601562 449.613281 L 1223.652344 449.613281 L 1223.652344 455.761719 Z M 1221.601562 455.761719 " fill-opacity="1" fill-rule="nonzero"/><path fill="#b4b4b4" d="M 1225.703125 457.8125 L 1225.703125 447.5625 L 1235.953125 447.5625 L 1235.953125 449.613281 L 1227.753906 449.613281 L 1227.753906 451.664062 L 1233.902344 451.664062 L 1233.902344 453.710938 L 1227.753906 453.710938 L 1227.753906 457.8125 Z M 1225.703125 457.8125 " fill-opacity="1" fill-rule="nonzero"/><path fill="#b4b4b4" d="M 1242.105469 457.8125 L 1242.105469 449.613281 L 1238 449.613281 L 1238 447.5625 L 1248.253906 447.5625 L 1248.253906 449.613281 L 1244.15625 449.613281 L 1244.15625 457.8125 Z M 1242.105469 457.8125 " fill-opacity="1" fill-rule="nonzero"/><path fill="#b4b4b4" d="M 1252.351562 457.8125 L 1252.351562 455.761719 L 1256.453125 455.761719 L 1256.453125 449.613281 L 1258.5 449.613281 L 1258.5 455.761719 L 1262.308594 455.761719 L 1262.308594 457.8125 Z M 1250.300781 455.761719 L 1250.300781 447.5625 L 1252.351562 447.5625 L 1252.351562 455.761719 Z M 1262.308594 455.761719 L 1262.308594 447.5625 L 1264.359375 447.5625 L 1264.359375 455.761719 Z M 1262.308594 455.761719 " fill-opacity="1" fill-rule="nonzero"/><path fill="#b4b4b4" d="M 1266.40625 457.8125 L 1266.40625 449.613281 L 1268.457031 449.613281 L 1268.457031 453.710938 L 1274.609375 453.710938 L 1274.609375 449.613281 L 1276.660156 449.613281 L 1276.660156 457.8125 L 1274.609375 457.8125 L 1274.609375 455.761719 L 1268.457031 455.761719 L 1268.457031 457.8125 Z M 1268.457031 449.613281 L 1268.457031 447.5625 L 1274.609375 447.5625 L 1274.609375 449.613281 Z M 1268.457031 449.613281 " fill-opacity="1" fill-rule="nonzero"/><path fill="#b4b4b4" d="M 1278.707031 457.8125 L 1278.707031 447.5625 L 1286.90625 447.5625 L 1286.90625 449.613281 L 1280.757812 449.613281 L 1280.757812 453.710938 L 1286.90625 453.710938 L 1286.90625 455.761719 L 1280.757812 455.761719 L 1280.757812 457.8125 Z M 1286.90625 457.8125 L 1286.90625 455.761719 L 1288.957031 455.761719 L 1288.957031 457.8125 Z M 1286.90625 453.710938 L 1286.90625 449.613281 L 1288.957031 449.613281 L 1288.957031 453.710938 Z M 1286.90625 453.710938 " fill-opacity="1" fill-rule="nonzero"/><path fill="#b4b4b4" d="M 1291.007812 457.8125 L 1291.007812 447.5625 L 1301.257812 447.5625 L 1301.257812 449.613281 L 1293.058594 449.613281 L 1293.058594 451.664062 L 1299.207031 451.664062 L 1299.207031 453.710938 L 1293.058594 453.710938 L 1293.058594 455.761719 L 1301.257812 455.761719 L 1301.257812 457.8125 Z M 1291.007812 457.8125 " fill-opacity="1" fill-rule="nonzero"/><path fill="#b4b4b4" d="M 1249.371094 290.847656 L 1249.371094 277.886719 L 1259.742188 277.886719 L 1259.742188 280.476562 L 1251.964844 280.476562 L 1251.964844 283.070312 L 1259.742188 283.070312 L 1259.742188 285.664062 L 1251.964844 285.664062 L 1251.964844 288.253906 L 1259.742188 288.253906 L 1259.742188 290.847656 Z M 1259.742188 288.253906 L 1259.742188 285.664062 L 1262.332031 285.664062 L 1262.332031 288.253906 Z M 1259.742188 283.070312 L 1259.742188 280.476562 L 1262.332031 280.476562 L 1262.332031 283.070312 Z M 1259.742188 283.070312 " fill-opacity="1" fill-rule="nonzero"/><path fill="#b4b4b4" d="M 1275.292969 288.253906 L 1275.292969 290.847656 L 1267.515625 290.847656 L 1267.515625 288.253906 Z M 1264.925781 288.253906 L 1264.925781 277.886719 L 1267.515625 277.886719 L 1267.515625 288.253906 Z M 1275.292969 288.253906 L 1275.292969 277.886719 L 1277.886719 277.886719 L 1277.886719 288.253906 Z M 1275.292969 288.253906 " fill-opacity="1" fill-rule="nonzero"/><path fill="#b4b4b4" d="M 1280.476562 290.847656 L 1280.476562 288.253906 L 1283.070312 288.253906 L 1283.070312 285.664062 L 1280.476562 285.664062 L 1280.476562 283.070312 L 1288.253906 283.070312 L 1288.253906 285.664062 L 1285.660156 285.664062 L 1285.660156 288.253906 L 1288.253906 288.253906 L 1288.253906 290.847656 Z M 1283.070312 280.476562 L 1283.070312 277.886719 L 1285.660156 277.886719 L 1285.660156 280.476562 Z M 1283.070312 280.476562 " fill-opacity="1" fill-rule="nonzero"/><path fill="#b4b4b4" d="M 1293.4375 290.847656 L 1293.4375 288.253906 L 1303.804688 288.253906 L 1303.804688 290.847656 Z M 1290.84375 288.253906 L 1290.84375 277.886719 L 1293.4375 277.886719 L 1293.4375 288.253906 Z M 1290.84375 288.253906 " fill-opacity="1" fill-rule="nonzero"/><path fill="#b4b4b4" d="M 1307.691406 290.847656 L 1307.691406 280.476562 L 1302.507812 280.476562 L 1302.507812 277.886719 L 1315.46875 277.886719 L 1315.46875 280.476562 L 1310.285156 280.476562 L 1310.285156 290.847656 Z M 1307.691406 290.847656 " fill-opacity="1" fill-rule="nonzero"/><path fill="#b4b4b4" d="M 1325.835938 290.847656 L 1325.835938 277.886719 L 1336.207031 277.886719 L 1336.207031 280.476562 L 1328.429688 280.476562 L 1328.429688 283.070312 L 1336.207031 283.070312 L 1336.207031 285.664062 L 1328.429688 285.664062 L 1328.429688 288.253906 L 1336.207031 288.253906 L 1336.207031 290.847656 Z M 1336.207031 288.253906 L 1336.207031 285.664062 L 1338.796875 285.664062 L 1338.796875 288.253906 Z M 1336.207031 283.070312 L 1336.207031 280.476562 L 1338.796875 280.476562 L 1338.796875 283.070312 Z M 1336.207031 283.070312 " fill-opacity="1" fill-rule="nonzero"/><path fill="#b4b4b4" d="M 1346.574219 290.847656 L 1346.574219 285.664062 L 1349.164062 285.664062 L 1349.164062 290.847656 Z M 1341.386719 283.070312 L 1341.386719 277.886719 L 1343.980469 277.886719 L 1343.980469 283.070312 Z M 1343.980469 285.664062 L 1343.980469 283.070312 L 1346.574219 283.070312 L 1346.574219 285.664062 Z M 1349.164062 285.664062 L 1349.164062 283.070312 L 1351.757812 283.070312 L 1351.757812 285.664062 Z M 1351.757812 283.070312 L 1351.757812 277.886719 L 1354.351562 277.886719 L 1354.351562 283.070312 Z M 1351.757812 283.070312 " fill-opacity="1" fill-rule="nonzero"/><path fill="#f7f8fa" d="M 1115.5 546.382812 L 1115.5 544.113281 L 1120.042969 544.113281 L 1120.042969 537.304688 L 1122.308594 537.304688 L 1122.308594 544.113281 L 1126.527344 544.113281 L 1126.527344 546.382812 Z M 1113.230469 544.113281 L 1113.230469 535.03125 L 1115.5 535.03125 L 1115.5 544.113281 Z M 1126.527344 544.113281 L 1126.527344 535.03125 L 1128.796875 535.03125 L 1128.796875 544.113281 Z M 1126.527344 544.113281 " fill-opacity="1" fill-rule="nonzero"/><path fill="#f7f8fa" d="M 1133.332031 546.382812 L 1133.332031 544.113281 L 1137.875 544.113281 L 1137.875 537.304688 L 1140.140625 537.304688 L 1140.140625 544.113281 L 1144.355469 544.113281 L 1144.355469 546.382812 Z M 1131.0625 544.113281 L 1131.0625 535.03125 L 1133.332031 535.03125 L 1133.332031 544.113281 Z M 1144.355469 544.113281 L 1144.355469 535.03125 L 1146.628906 535.03125 L 1146.628906 544.113281 Z M 1144.355469 544.113281 " fill-opacity="1" fill-rule="nonzero"/><path fill="#f7f8fa" d="M 1151.164062 546.382812 L 1151.164062 544.113281 L 1155.707031 544.113281 L 1155.707031 537.304688 L 1157.972656 537.304688 L 1157.972656 544.113281 L 1162.1875 544.113281 L 1162.1875 546.382812 Z M 1148.894531 544.113281 L 1148.894531 535.03125 L 1151.164062 535.03125 L 1151.164062 544.113281 Z M 1162.1875 544.113281 L 1162.1875 535.03125 L 1164.457031 535.03125 L 1164.457031 544.113281 Z M 1162.1875 544.113281 " fill-opacity="1" fill-rule="nonzero"/><path fill="#f7f8fa" d="M 1166.722656 544.113281 L 1168.996094 544.113281 L 1168.996094 546.382812 L 1166.722656 546.382812 Z M 1166.722656 544.113281 " fill-opacity="1" fill-rule="nonzero"/><path fill="#f7f8fa" d="M 1173.535156 537.304688 L 1173.535156 544.113281 L 1171.261719 544.113281 L 1171.261719 537.304688 Z M 1173.535156 546.382812 L 1173.535156 544.113281 L 1182.613281 544.113281 L 1182.613281 546.382812 Z M 1173.535156 537.304688 L 1173.535156 535.03125 L 1182.613281 535.03125 L 1182.613281 537.304688 Z M 1173.535156 537.304688 " fill-opacity="1" fill-rule="nonzero"/><path fill="#f7f8fa" d="M 1184.878906 546.382812 L 1184.878906 535.03125 L 1187.148438 535.03125 L 1187.148438 539.574219 L 1193.957031 539.574219 L 1193.957031 535.03125 L 1196.230469 535.03125 L 1196.230469 546.382812 L 1193.957031 546.382812 L 1193.957031 541.839844 L 1187.148438 541.839844 L 1187.148438 546.382812 Z M 1184.878906 546.382812 " fill-opacity="1" fill-rule="nonzero"/><path fill="#f7f8fa" d="M 1198.496094 546.382812 L 1198.496094 537.304688 L 1200.765625 537.304688 L 1200.765625 541.839844 L 1207.574219 541.839844 L 1207.574219 537.304688 L 1209.847656 537.304688 L 1209.847656 546.382812 L 1207.574219 546.382812 L 1207.574219 544.113281 L 1200.765625 544.113281 L 1200.765625 546.382812 Z M 1200.765625 537.304688 L 1200.765625 535.03125 L 1207.574219 535.03125 L 1207.574219 537.304688 Z M 1200.765625 537.304688 " fill-opacity="1" fill-rule="nonzero"/><path fill="#f7f8fa" d="M 1215.519531 546.382812 L 1215.519531 537.304688 L 1210.976562 537.304688 L 1210.976562 535.03125 L 1222.328125 535.03125 L 1222.328125 537.304688 L 1217.789062 537.304688 L 1217.789062 546.382812 Z M 1215.519531 546.382812 " fill-opacity="1" fill-rule="nonzero"/><path fill="#f7f8fa" d="M 1232.539062 544.113281 L 1232.539062 546.382812 L 1225.730469 546.382812 L 1225.730469 544.113281 Z M 1223.460938 544.113281 L 1223.460938 537.304688 L 1225.730469 537.304688 L 1225.730469 544.113281 Z M 1225.730469 537.304688 L 1225.730469 535.03125 L 1232.539062 535.03125 L 1232.539062 537.304688 Z M 1232.539062 544.113281 L 1232.539062 537.304688 L 1234.808594 537.304688 L 1234.808594 544.113281 Z M 1232.539062 544.113281 " fill-opacity="1" fill-rule="nonzero"/><path fill="#f7f8fa" d="M 1246.15625 546.382812 L 1246.15625 539.574219 L 1243.886719 539.574219 L 1243.886719 537.304688 L 1246.15625 537.304688 L 1246.15625 535.03125 L 1248.425781 535.03125 L 1248.425781 546.382812 Z M 1237.074219 546.382812 L 1237.074219 535.03125 L 1239.347656 535.03125 L 1239.347656 537.304688 L 1241.617188 537.304688 L 1241.617188 539.574219 L 1239.347656 539.574219 L 1239.347656 546.382812 Z M 1241.617188 541.839844 L 1241.617188 539.574219 L 1243.886719 539.574219 L 1243.886719 541.839844 Z M 1241.617188 541.839844 " fill-opacity="1" fill-rule="nonzero"/><path fill="#f7f8fa" d="M 1250.691406 546.382812 L 1250.691406 537.304688 L 1252.960938 537.304688 L 1252.960938 541.839844 L 1259.769531 541.839844 L 1259.769531 537.304688 L 1262.042969 537.304688 L 1262.042969 546.382812 L 1259.769531 546.382812 L 1259.769531 544.113281 L 1252.960938 544.113281 L 1252.960938 546.382812 Z M 1252.960938 537.304688 L 1252.960938 535.03125 L 1259.769531 535.03125 L 1259.769531 537.304688 Z M 1252.960938 537.304688 " fill-opacity="1" fill-rule="nonzero"/><path fill="#f7f8fa" d="M 1267.714844 546.382812 L 1267.714844 537.304688 L 1263.171875 537.304688 L 1263.171875 535.03125 L 1274.523438 535.03125 L 1274.523438 537.304688 L 1269.984375 537.304688 L 1269.984375 546.382812 Z M 1267.714844 546.382812 " fill-opacity="1" fill-rule="nonzero"/><path fill="#f7f8fa" d="M 1275.65625 546.382812 L 1275.65625 544.113281 L 1277.925781 544.113281 L 1277.925781 541.839844 L 1275.65625 541.839844 L 1275.65625 539.574219 L 1282.46875 539.574219 L 1282.46875 541.839844 L 1280.195312 541.839844 L 1280.195312 544.113281 L 1282.46875 544.113281 L 1282.46875 546.382812 Z M 1277.925781 537.304688 L 1277.925781 535.03125 L 1280.195312 535.03125 L 1280.195312 537.304688 Z M 1277.925781 537.304688 " fill-opacity="1" fill-rule="nonzero"/><path fill="#f7f8fa" d="M 1287.003906 537.304688 L 1287.003906 544.113281 L 1284.734375 544.113281 L 1284.734375 537.304688 Z M 1287.003906 546.382812 L 1287.003906 544.113281 L 1296.082031 544.113281 L 1296.082031 546.382812 Z M 1287.003906 537.304688 L 1287.003906 535.03125 L 1296.082031 535.03125 L 1296.082031 537.304688 Z M 1287.003906 537.304688 " fill-opacity="1" fill-rule="nonzero"/><path fill="#f7f8fa" d="M 1298.347656 544.113281 L 1300.621094 544.113281 L 1300.621094 546.382812 L 1298.347656 546.382812 Z M 1298.347656 544.113281 " fill-opacity="1" fill-rule="nonzero"/><path fill="#f7f8fa" d="M 1305.160156 546.382812 L 1305.160156 537.304688 L 1300.617188 537.304688 L 1300.617188 535.03125 L 1311.96875 535.03125 L 1311.96875 537.304688 L 1307.429688 537.304688 L 1307.429688 546.382812 Z M 1305.160156 546.382812 " fill-opacity="1" fill-rule="nonzero"/><path fill="#f7f8fa" d="M 1323.3125 541.839844 L 1323.3125 544.113281 L 1321.046875 544.113281 L 1321.046875 541.839844 Z M 1314.234375 541.839844 L 1314.234375 535.03125 L 1316.507812 535.03125 L 1316.507812 541.839844 Z M 1316.507812 544.113281 L 1316.507812 541.839844 L 1318.777344 541.839844 L 1318.777344 544.113281 Z M 1318.777344 546.382812 L 1318.777344 544.113281 L 1321.046875 544.113281 L 1321.046875 546.382812 Z M 1323.3125 541.839844 L 1323.3125 535.03125 L 1325.585938 535.03125 L 1325.585938 541.839844 Z M 1323.3125 541.839844 " fill-opacity="1" fill-rule="nonzero"/><g transform="matrix(1, 0, 0, 1, 277, 189)"><g clip-path="url(#246049ce60)"><g fill="#f7f8fa" fill-opacity="1"><g transform="translate(0.95376, 29.705792)"><g><path d="M 1.8125 -3.625 L 1.8125 -21.75 L 5.4375 -21.75 L 5.4375 -3.625 Z M 5.4375 0 L 5.4375 -3.625 L 16.3125 -3.625 L 16.3125 0 Z M 5.4375 -21.75 L 5.4375 -25.375 L 16.3125 -25.375 L 16.3125 -21.75 Z M 16.3125 -3.625 L 16.3125 -7.25 L 19.9375 -7.25 L 19.9375 -3.625 Z M 16.3125 -18.125 L 16.3125 -21.75 L 19.9375 -21.75 L 19.9375 -18.125 Z M 16.3125 -18.125 "/></g></g></g><g fill="#f7f8fa" fill-opacity="1"><g transform="translate(22.69892, 29.705792)"><g><path d="M 1.8125 0 L 1.8125 -25.375 L 5.4375 -25.375 L 5.4375 -14.5 L 9.0625 -14.5 L 9.0625 -10.875 L 5.4375 -10.875 L 5.4375 0 Z M 9.0625 -14.5 L 9.0625 -18.125 L 16.3125 -18.125 L 16.3125 -14.5 Z M 16.3125 0 L 16.3125 -14.5 L 19.9375 -14.5 L 19.9375 0 Z M 16.3125 0 "/></g></g></g><g fill="#f7f8fa" fill-opacity="1"><g transform="translate(44.44408, 29.705792)"><g><path d="M 5.4375 0 L 5.4375 -3.625 L 16.3125 -3.625 L 16.3125 -7.25 L 5.4375 -7.25 L 5.4375 -10.875 L 16.3125 -10.875 L 16.3125 -14.5 L 19.9375 -14.5 L 19.9375 0 Z M 1.8125 -3.625 L 1.8125 -7.25 L 5.4375 -7.25 L 5.4375 -3.625 Z M 5.4375 -14.5 L 5.4375 -18.125 L 16.3125 -18.125 L 16.3125 -14.5 Z M 5.4375 -14.5 "/></g></g></g><g fill="#f7f8fa" fill-opacity="1"><g transform="translate(66.18924, 29.705792)"><g><path d="M 1.8125 -3.625 L 1.8125 -25.375 L 5.4375 -25.375 L 5.4375 -18.125 L 12.6875 -18.125 L 12.6875 -14.5 L 5.4375 -14.5 L 5.4375 -3.625 Z M 5.4375 0 L 5.4375 -3.625 L 12.6875 -3.625 L 12.6875 0 Z M 5.4375 0 "/></g></g></g><g fill="#f7f8fa" fill-opacity="1"><g transform="translate(80.68602, 29.705792)"><g/></g></g><g fill="#f7f8fa" fill-opacity="1"><g transform="translate(89.746496, 29.705792)"><g><path d="M 9.0625 0 L 9.0625 -21.75 L 1.8125 -21.75 L 1.8125 -25.375 L 19.9375 -25.375 L 19.9375 -21.75 L 12.6875 -21.75 L 12.6875 0 Z M 9.0625 0 "/></g></g></g><g fill="#f7f8fa" fill-opacity="1"><g transform="translate(107.867357, 29.705792)"><g><path d="M 30.8125 -7.25 L 30.8125 -3.625 L 27.1875 -3.625 L 27.1875 -7.25 Z M 1.8125 -7.25 L 1.8125 -18.125 L 5.4375 -18.125 L 5.4375 -7.25 Z M 5.4375 -3.625 L 5.4375 -7.25 L 9.0625 -7.25 L 9.0625 -3.625 Z M 9.0625 0 L 9.0625 -3.625 L 12.6875 -3.625 L 12.6875 0 Z M 12.6875 -3.625 L 12.6875 -7.25 L 16.3125 -7.25 L 16.3125 -3.625 Z M 16.3125 -7.25 L 16.3125 -18.125 L 19.9375 -18.125 L 19.9375 -7.25 Z M 19.9375 -3.625 L 19.9375 -7.25 L 23.5625 -7.25 L 23.5625 -3.625 Z M 23.5625 0 L 23.5625 -3.625 L 27.1875 -3.625 L 27.1875 0 Z M 30.8125 -7.25 L 30.8125 -18.125 L 34.4375 -18.125 L 34.4375 -7.25 Z M 30.8125 -7.25 "/></g></g></g><g fill="#f7f8fa" fill-opacity="1"><g transform="translate(144.109288, 29.705792)"><g><path d="M 1.8125 0 L 1.8125 -18.125 L 5.4375 -18.125 L 5.4375 0 Z M 1.8125 -21.75 L 1.8125 -25.375 L 5.4375 -25.375 L 5.4375 -21.75 Z M 1.8125 -21.75 "/></g></g></g><g fill="#f7f8fa" fill-opacity="1"><g transform="translate(151.357678, 29.705792)"><g><path d="M 1.8125 -3.625 L 1.8125 -25.375 L 5.4375 -25.375 L 5.4375 -18.125 L 12.6875 -18.125 L 12.6875 -14.5 L 5.4375 -14.5 L 5.4375 -3.625 Z M 5.4375 0 L 5.4375 -3.625 L 12.6875 -3.625 L 12.6875 0 Z M 5.4375 0 "/></g></g></g><g fill="#f7f8fa" fill-opacity="1"><g transform="translate(165.854457, 29.705792)"><g><path d="M 5.4375 -14.5 L 5.4375 -3.625 L 1.8125 -3.625 L 1.8125 -14.5 Z M 5.4375 0 L 5.4375 -3.625 L 16.3125 -3.625 L 16.3125 0 Z M 5.4375 -14.5 L 5.4375 -18.125 L 16.3125 -18.125 L 16.3125 -14.5 Z M 5.4375 -14.5 "/></g></g></g><g fill="#f7f8fa" fill-opacity="1"><g transform="translate(183.975409, 29.705792)"><g><path d="M 1.8125 0 L 1.8125 -25.375 L 5.4375 -25.375 L 5.4375 -14.5 L 9.0625 -14.5 L 9.0625 -10.875 L 5.4375 -10.875 L 5.4375 0 Z M 9.0625 -14.5 L 9.0625 -18.125 L 16.3125 -18.125 L 16.3125 -14.5 Z M 16.3125 0 L 16.3125 -14.5 L 19.9375 -14.5 L 19.9375 0 Z M 16.3125 0 "/></g></g></g><g fill="#f7f8fa" fill-opacity="1"><g transform="translate(205.720569, 29.705792)"><g/></g></g><g fill="#f7f8fa" fill-opacity="1"><g transform="translate(214.781064, 29.705792)"><g><path d="M 1.8125 0 L 1.8125 -25.375 L 5.4375 -25.375 L 5.4375 0 Z M 1.8125 0 "/></g></g></g><g fill="#f7f8fa" fill-opacity="1"><g transform="translate(222.029444, 29.705792)"><g><path d="M 16.3125 0 L 16.3125 -14.5 L 19.9375 -14.5 L 19.9375 0 Z M 1.8125 0 L 1.8125 -14.5 L 5.4375 -14.5 L 5.4375 0 Z M 5.4375 -14.5 L 5.4375 -18.125 L 16.3125 -18.125 L 16.3125 -14.5 Z M 5.4375 -14.5 "/></g></g></g><g fill="#f7f8fa" fill-opacity="1"><g transform="translate(243.774604, 29.705792)"><g><path d="M 1.8125 -3.625 L 1.8125 -25.375 L 5.4375 -25.375 L 5.4375 -18.125 L 12.6875 -18.125 L 12.6875 -14.5 L 5.4375 -14.5 L 5.4375 -3.625 Z M 5.4375 0 L 5.4375 -3.625 L 12.6875 -3.625 L 12.6875 0 Z M 5.4375 0 "/></g></g></g><g fill="#f7f8fa" fill-opacity="1"><g transform="translate(258.271384, 29.705792)"><g><path d="M 1.8125 -3.625 L 1.8125 -14.5 L 5.4375 -14.5 L 5.4375 -10.875 L 16.3125 -10.875 L 16.3125 -7.25 L 5.4375 -7.25 L 5.4375 -3.625 Z M 5.4375 0 L 5.4375 -3.625 L 16.3125 -3.625 L 16.3125 0 Z M 5.4375 -14.5 L 5.4375 -18.125 L 16.3125 -18.125 L 16.3125 -14.5 Z M 16.3125 -10.875 L 16.3125 -14.5 L 19.9375 -14.5 L 19.9375 -10.875 Z M 16.3125 -10.875 "/></g></g></g><g fill="#f7f8fa" fill-opacity="1"><g transform="translate(280.016544, 29.705792)"><g><path d="M 1.8125 -3.625 L 1.8125 -25.375 L 5.4375 -25.375 L 5.4375 -3.625 Z M 5.4375 0 L 5.4375 -3.625 L 9.0625 -3.625 L 9.0625 0 Z M 5.4375 0 "/></g></g></g><g fill="#f7f8fa" fill-opacity="1"><g transform="translate(289.439439, 29.705792)"><g><path d="M 1.8125 -3.625 L 1.8125 -25.375 L 5.4375 -25.375 L 5.4375 -3.625 Z M 5.4375 0 L 5.4375 -3.625 L 9.0625 -3.625 L 9.0625 0 Z M 5.4375 0 "/></g></g></g><g fill="#f7f8fa" fill-opacity="1"><g transform="translate(298.862352, 29.705792)"><g><path d="M 1.8125 -3.625 L 1.8125 -14.5 L 5.4375 -14.5 L 5.4375 -10.875 L 16.3125 -10.875 L 16.3125 -7.25 L 5.4375 -7.25 L 5.4375 -3.625 Z M 5.4375 0 L 5.4375 -3.625 L 16.3125 -3.625 L 16.3125 0 Z M 5.4375 -14.5 L 5.4375 -18.125 L 16.3125 -18.125 L 16.3125 -14.5 Z M 16.3125 -10.875 L 16.3125 -14.5 L 19.9375 -14.5 L 19.9375 -10.875 Z M 16.3125 -10.875 "/></g></g></g><g fill="#f7f8fa" fill-opacity="1"><g transform="translate(320.607494, 29.705792)"><g><path d="M 16.3125 3.625 L 16.3125 7.25 L 5.4375 7.25 L 5.4375 3.625 Z M 1.8125 -3.625 L 1.8125 -14.5 L 5.4375 -14.5 L 5.4375 -3.625 Z M 5.4375 0 L 5.4375 -3.625 L 16.3125 -3.625 L 16.3125 -14.5 L 19.9375 -14.5 L 19.9375 3.625 L 16.3125 3.625 L 16.3125 0 Z M 5.4375 -14.5 L 5.4375 -18.125 L 16.3125 -18.125 L 16.3125 -14.5 Z M 5.4375 -14.5 "/></g></g></g><g fill="#f7f8fa" fill-opacity="1"><g transform="translate(342.352672, 29.705792)"><g><path d="M 1.8125 0 L 1.8125 -18.125 L 5.4375 -18.125 L 5.4375 0 Z M 1.8125 -21.75 L 1.8125 -25.375 L 5.4375 -25.375 L 5.4375 -21.75 Z M 1.8125 -21.75 "/></g></g></g><g fill="#f7f8fa" fill-opacity="1"><g transform="translate(349.601053, 29.705792)"><g><path d="M 1.8125 -3.625 L 1.8125 -14.5 L 5.4375 -14.5 L 5.4375 -10.875 L 16.3125 -10.875 L 16.3125 -7.25 L 5.4375 -7.25 L 5.4375 -3.625 Z M 5.4375 0 L 5.4375 -3.625 L 16.3125 -3.625 L 16.3125 0 Z M 5.4375 -14.5 L 5.4375 -18.125 L 16.3125 -18.125 L 16.3125 -14.5 Z M 16.3125 -10.875 L 16.3125 -14.5 L 19.9375 -14.5 L 19.9375 -10.875 Z M 16.3125 -10.875 "/></g></g></g><g fill="#f7f8fa" fill-opacity="1"><g transform="translate(371.346231, 29.705792)"><g><path d="M 16.3125 0 L 16.3125 -14.5 L 19.9375 -14.5 L 19.9375 0 Z M 1.8125 0 L 1.8125 -14.5 L 5.4375 -14.5 L 5.4375 0 Z M 5.4375 -14.5 L 5.4375 -18.125 L 16.3125 -18.125 L 16.3125 -14.5 Z M 5.4375 -14.5 "/></g></g></g><g fill="#f7f8fa" fill-opacity="1"><g transform="translate(393.091373, 29.705792)"><g><path d="M 5.4375 -14.5 L 5.4375 -3.625 L 1.8125 -3.625 L 1.8125 -14.5 Z M 5.4375 0 L 5.4375 -3.625 L 16.3125 -3.625 L 16.3125 0 Z M 5.4375 -14.5 L 5.4375 -18.125 L 16.3125 -18.125 L 16.3125 -14.5 Z M 5.4375 -14.5 "/></g></g></g><g fill="#f7f8fa" fill-opacity="1"><g transform="translate(411.212325, 29.705792)"><g><path d="M 1.8125 -3.625 L 1.8125 -14.5 L 5.4375 -14.5 L 5.4375 -10.875 L 16.3125 -10.875 L 16.3125 -7.25 L 5.4375 -7.25 L 5.4375 -3.625 Z M 5.4375 0 L 5.4375 -3.625 L 16.3125 -3.625 L 16.3125 0 Z M 5.4375 -14.5 L 5.4375 -18.125 L 16.3125 -18.125 L 16.3125 -14.5 Z M 16.3125 -10.875 L 16.3125 -14.5 L 19.9375 -14.5 L 19.9375 -10.875 Z M 16.3125 -10.875 "/></g></g></g><g fill="#f7f8fa" fill-opacity="1"><g transform="translate(432.957503, 29.705792)"><g/></g></g><g fill="#f7f8fa" fill-opacity="1"><g transform="translate(442.017979, 29.705792)"><g><path d="M 1.8125 -3.625 L 1.8125 -21.75 L 5.4375 -21.75 L 5.4375 -3.625 Z M 5.4375 0 L 5.4375 -3.625 L 16.3125 -3.625 L 16.3125 0 Z M 5.4375 -21.75 L 5.4375 -25.375 L 16.3125 -25.375 L 16.3125 -21.75 Z M 16.3125 -3.625 L 16.3125 -7.25 L 19.9375 -7.25 L 19.9375 -3.625 Z M 16.3125 -18.125 L 16.3125 -21.75 L 19.9375 -21.75 L 19.9375 -18.125 Z M 16.3125 -18.125 "/></g></g></g><g fill="#f7f8fa" fill-opacity="1"><g transform="translate(463.763158, 29.705792)"><g><path d="M 1.8125 0 L 1.8125 -25.375 L 5.4375 -25.375 L 5.4375 -3.625 L 19.9375 -3.625 L 19.9375 0 Z M 1.8125 0 "/></g></g></g><g fill="#f7f8fa" fill-opacity="1"><g transform="translate(485.5083, 29.705792)"><g><path d="M 1.8125 0 L 1.8125 -25.375 L 5.4375 -25.375 L 5.4375 0 Z M 1.8125 0 "/></g></g></g></g></g></svg>